Coordinates
nRows=136
nColumns=2
inDegrees=yes
endheader
time	ankle_angle_r	
2.87482	  9.368795	
2.93731	  9.297907	
2.99981	  9.301823	
3.0623	  9.305147	
3.1248	  9.304267	
3.1873	  9.359828	
3.24979	  9.394786	
3.31229	  9.374219	
3.37478	  9.351803	
3.43728	  9.322540	
3.49978	  9.313409	
3.56227	  9.339342	
3.62477	  9.374547	
3.68726	  9.420319	
3.74976	  9.433868	
3.81226	  9.435685	
3.87475	  9.459280	
3.93725	  9.430646	
3.99974	  9.372584	
4.06224	  9.354709	
4.12474	  9.383832	
4.18723	  9.418876	
4.24973	  9.396304	
4.31222	  9.377260	
4.37472	  9.377228	
4.43722	  9.325968	
4.49971	  9.294741	
4.56221	  9.310411	
4.6247	  9.325667	
4.6872	  9.351005	
4.7497	  9.359310	
4.81219	  9.357705	
4.87469	  9.356471	
4.93718	  9.321880	
4.99968	  9.303130	
5.06218	  9.323912	
5.12467	  9.360017	
5.18717	  9.401691	
5.24966	  9.431433	
5.31216	  9.480957	
5.37466	  9.493610	
5.43715	  9.410542	
5.49965	  9.369012	
5.56214	  9.398818	
5.62464	  9.408614	
5.68714	  9.397590	
5.74963	  9.381079	
5.81213	  9.384458	
5.87462	  9.366913	
5.93712	  9.295933	
5.99962	  9.280167	
6.06211	  9.308159	
6.12461	  9.306087	
6.1871	  9.333087	
6.2496	  9.379829	
6.3121	  9.401338	
6.37459	  9.400547	
6.43709	  9.350795	
6.49958	  9.295160	
6.56208	  9.302990	
6.62458	  9.355134	
6.68707	  9.405399	
6.74957	  9.425609	
6.81206	  9.431887	
6.87456	  9.438282	
6.93706	  9.431976	
6.99955	  9.424363	
7.06205	  9.421005	
7.12454	  9.447925	
7.18704	  9.511884	
7.24954	  9.526942	
7.31203	  9.479745	
7.37453	  9.432219	
7.43702	  9.394627	
7.49952	  9.382232	
7.56202	  9.382420	
7.62451	  9.387916	
7.68701	  9.430083	
7.7495	  9.461793	
7.812	  9.452764	
7.8745	  9.410248	
7.93699	  9.349328	
7.99949	  9.339655	
8.06198	  9.344658	
8.12448	  9.314630	
8.18698	  9.324324	
8.24947	  9.360413	
8.31197	  9.370118	
8.37446	  9.360819	
8.43696	  9.323136	
8.49946	  9.303050	
8.56195	  9.318009	
8.62445	  9.330387	
8.68694	  9.375235	
8.74944	  9.428523	
8.81194	  9.439866	
8.87443	  9.441176	
8.93693	  9.436928	
8.99942	  9.420445	
9.06192	  9.411493	
9.12442	  9.429822	
9.18691	  9.457407	
9.24941	  9.454110	
9.3119	  9.448255	
9.3744	  9.442569	
9.4369	  9.385042	
9.49939	  9.324532	
9.56189	  9.305240	
9.62438	  9.293874	
9.68688	  9.315575	
9.74938	  9.361512	
9.81187	  9.374569	
9.87437	  9.361009	
9.93686	  9.327180	
9.99936	  9.290846	
10.0619	  9.270484	
10.1244	  9.290521	
10.1868	  9.388259	
10.2493	  9.466707	
10.3118	  9.477352	
10.3743	  9.486012	
10.4368	  9.448030	
10.4993	  9.403348	
10.5618	  9.424164	
10.6243	  9.436814	
10.6868	  9.435437	
10.7493	  9.415923	
10.8118	  9.383530	
10.8743	  9.387301	
10.9368	  9.357895	
10.9993	  9.303523	
11.0618	  9.291239	
11.1243	  9.292457	
11.1868	  9.333947	
11.2493	  9.379354	
11.3118	  9.323536	
